<?xml version="1.0" standalone="no"?>
<!DOCTYPE svg PUBLIC "-//W3C//DTD SVG 20010904//EN"
 "http://www.w3.org/TR/2001/REC-SVG-20010904/DTD/svg10.dtd">
<svg version="1.0" xmlns="http://www.w3.org/2000/svg"
 width="1200.000000pt" height="1200.000000pt" viewBox="0 0 1200.000000 1200.000000"
 preserveAspectRatio="xMidYMid meet">

<g transform="translate(0.000000,1200.000000) scale(0.100000,-0.100000)"
fill="#000000" stroke="none">
<path d="M4726 7543 l-68 -4 6 -77 c15 -204 18 -370 6 -406 -15 -46 -49 -69
-100 -69 -88 0 -101 35 -114 313 l-11 225 -27 -1 c-16 0 -56 -1 -89 -2 l-62
-2 7 -172 c13 -340 42 -427 161 -491 32 -18 57 -22 130 -22 119 0 190 30 234
101 46 72 54 133 47 344 -8 234 -13 271 -35 268 -9 -1 -47 -4 -85 -5z"/>
<path d="M5285 7261 c-102 -204 -125 -270 -125 -353 0 -51 6 -73 29 -113 69
-121 256 -186 367 -127 71 36 119 104 225 315 55 109 99 200 97 202 -9 8 -151
76 -153 73 -2 -2 -46 -91 -99 -198 -107 -218 -132 -250 -197 -250 -31 0 -47 7
-70 29 -50 50 -43 81 71 311 55 110 100 203 100 205 0 6 -137 75 -150 75 -5 0
-48 -76 -95 -169z"/>
<path d="M3568 7247 c-126 -72 -228 -135 -228 -138 0 -15 65 -119 74 -119 5 0
41 18 79 40 39 23 74 37 78 33 5 -5 65 -107 135 -228 69 -121 127 -222 129
-224 4 -3 155 78 155 84 0 2 -58 105 -130 230 -71 124 -130 230 -130 235 0 5
34 27 75 50 41 23 75 43 75 45 0 10 -72 125 -78 124 -4 0 -109 -60 -234 -132z"/>
<path d="M6020 6638 c-146 -104 -272 -193 -280 -198 -12 -7 -5 -21 34 -79 27
-39 53 -71 59 -71 5 0 47 27 93 61 47 33 90 59 97 56 7 -2 18 -16 26 -30 12
-23 9 -33 -47 -138 l-61 -114 50 -70 c27 -38 54 -74 59 -79 6 -6 34 43 74 127
64 136 65 137 91 127 128 -49 295 61 295 193 0 26 -8 69 -19 96 -15 40 -127
210 -193 293 -12 14 -40 -3 -278 -174z m295 -90 c19 -29 35 -65 35 -81 0 -41
-40 -77 -86 -77 -32 0 -44 7 -81 46 -24 26 -43 52 -43 58 0 8 123 103 137 106
1 0 18 -24 38 -52z"/>
<path d="M2890 6633 c-48 -64 -50 -68 -33 -84 10 -9 132 -103 272 -209 210
-159 256 -189 267 -178 7 7 67 85 134 173 l121 160 -33 28 c-18 16 -45 37 -59
47 l-25 19 -79 -105 c-70 -91 -81 -102 -97 -91 -9 6 -105 78 -212 160 -107 81
-197 147 -200 147 -3 0 -28 -30 -56 -67z"/>
<path d="M2576 6029 c-10 -45 -14 -85 -9 -89 4 -4 87 -24 183 -45 229 -50 262
-60 294 -91 35 -36 36 -91 0 -133 -23 -28 -31 -31 -82 -31 -32 0 -145 20 -252
44 -107 24 -197 43 -199 41 -5 -5 -42 -167 -39 -170 2 -2 89 -22 193 -46 301
-69 417 -60 490 35 80 105 94 284 27 361 -62 73 -127 100 -368 154 -98 23
-188 43 -200 46 -19 4 -22 -3 -38 -76z"/>
<path d="M3012 5191 l-42 -59 26 -16 c40 -27 64 -75 64 -130 0 -44 -4 -53 -43
-91 -90 -91 -253 -101 -327 -20 -21 22 -25 37 -25 83 0 31 4 65 9 74 7 15 -3
23 -55 48 -72 34 -79 31 -99 -40 -38 -138 30 -293 161 -365 106 -57 281 -43
401 34 166 106 185 362 36 496 -28 25 -54 45 -58 45 -4 0 -26 -27 -48 -59z"/>
<path d="M7390 4703 l0 -227 -43 45 c-91 96 -229 120 -362 65 -19 -8 -59 -38
-89 -66 -177 -167 -176 -507 2 -673 80 -74 127 -91 252 -92 96 0 110 3 163 29
38 18 69 43 88 68 24 34 30 38 34 22 28 -93 75 -124 185 -124 127 0 120 -8
120 140 0 119 -1 128 -20 133 -11 3 -24 17 -30 32 -6 16 -10 189 -10 451 l0
424 -145 0 -145 0 0 -227z m-74 -372 c55 -42 74 -88 74 -172 0 -77 0 -77 -40
-113 -46 -41 -74 -50 -137 -43 -57 6 -92 31 -121 88 -42 80 -14 197 59 247 44
31 122 27 165 -7z"/>
<path d="M4425 4523 c-70 -203 -158 -457 -196 -566 l-69 -198 157 3 157 3 31
105 31 105 156 3 156 2 34 -107 34 -108 156 -3 157 -3 -23 63 c-13 35 -101
289 -197 566 l-173 502 -142 0 -141 0 -128 -367z m324 -159 l48 -169 -100 -3
c-55 -1 -102 -1 -104 2 -3 2 7 44 22 93 15 48 38 125 52 171 13 46 27 82 29
79 3 -2 26 -80 53 -173z"/>
<path d="M5808 4609 c-76 -11 -159 -51 -197 -95 l-31 -35 0 61 0 60 -135 0
-135 0 0 -420 0 -420 150 0 150 0 0 243 c0 224 2 244 20 275 43 70 130 93 175
47 l25 -24 0 -271 0 -270 150 0 150 0 0 235 c0 261 1 268 65 324 50 43 103 44
139 0 l26 -31 0 -264 0 -264 151 0 150 0 -3 333 -3 332 -30 60 c-54 106 -136
145 -271 126 -82 -12 -147 -43 -200 -97 l-42 -42 -12 28 c-36 86 -153 130
-292 109z"/>
<path d="M8137 4609 c-81 -11 -176 -41 -234 -75 l-42 -24 39 -81 c21 -44 40
-85 42 -91 2 -6 37 7 78 28 73 38 78 39 178 39 100 0 105 -1 127 -27 19 -22
42 -94 33 -103 -2 -2 -28 3 -58 11 -102 26 -231 14 -320 -31 -110 -55 -174
-176 -152 -284 16 -74 53 -133 109 -170 63 -42 113 -54 203 -49 88 5 155 35
221 98 23 22 43 39 43 38 1 -2 8 -23 16 -47 22 -64 55 -85 146 -89 41 -2 90
-1 109 2 l35 7 0 127 c0 122 -1 128 -22 137 -31 14 -36 40 -37 192 -1 150 -19
217 -73 279 -81 92 -258 137 -441 113z m203 -489 c25 -13 27 -66 4 -99 -21
-30 -89 -61 -134 -61 -77 0 -122 52 -97 113 21 49 67 69 144 63 35 -3 72 -10
83 -16z"/>
<path d="M9328 4609 c-76 -11 -159 -51 -197 -95 l-31 -35 0 61 0 60 -135 0
-135 0 0 -420 0 -420 150 0 150 0 0 243 c0 224 2 244 20 275 43 70 130 93 175
47 l25 -24 0 -271 0 -270 150 0 150 0 0 235 c0 261 1 268 65 324 50 43 103 44
139 0 l26 -31 0 -264 0 -264 151 0 150 0 -3 333 -3 332 -30 60 c-54 106 -136
145 -271 126 -82 -12 -147 -43 -200 -97 l-42 -42 -12 28 c-36 86 -153 130
-292 109z"/>
</g>
</svg>
